<svg xmlns="http://www.w3.org/2000/svg" xmlns:xlink="http://www.w3.org/1999/xlink" version="1.1" x="0px" y="0px" viewBox="0 0 100 125" enable-background="new 0 0 100 100" xml:space="preserve"><path d="M61.335,7.549c3.237-3.336,8.586-3.405,11.923-0.164c3.348,3.241,2.937,7.874-0.306,11.209  c-3.242,3.328-8.099,4.137-11.437,0.887C58.173,16.233,58.084,10.888,61.335,7.549z"/><path d="M50.008,73.613l-15.282,6.734c-0.719,0.219-1.377,0.869-1.824,1.488c-1.686,2.333-1.167,5.511,1.042,7.105  c1.722,1.243,3.78,1.236,5.498,0.411l4.021-1.827l13.24-6.047c7.907-4.719,4.944-10.503,3.262-12.88  c-1.685-2.378-10.13-13.844-10.13-13.844l4.058-5.028l9.466-11.659l8.813,7.202c0,0,2.476,2.076,6.855-0.388l13.421-7.134  c0.938-0.573,1.862-1.411,2.261-3.431c0.398-2.021-1.189-4.922-3.738-5.117c-0.976-0.076-1.804,0.206-3.121,0.804l-12.37,5.551  c0,0-4.33-5.736-5.719-7.27c-1.392-1.533-2.811-2.822-4.639-4.315c-1.826-1.494-6.838-3.571-9.11-3.63l-1.479-0.014l-14.545,0.874  c-2.561,0.096-3.558,1.38-4.918,2.327c-1.36,0.946-10.901,7.434-11.605,7.971c-1.211,0.925-1.566,2.051-1.527,3.197  c0.07,2.123,1.887,4.013,4.118,3.975c1.198-0.021,2.479-0.731,3.786-1.72l10.846-6.995l6.398,0.06L37.022,45.757  c-5.269,6.638,0.388,12.233,2.304,14.851L50.008,73.613z"/><path d="M37.654,63.146l-0.686-0.813c-0.903-1.231-2.625-3.131-3.653-5.481c-0.042-0.095-12.812,15.305-12.812,15.305L6.523,86.579  c-0.585,0.476-0.953,1.32-1.135,2.061c-0.69,2.797,0.977,5.55,3.622,6.204c2.061,0.508,3.967-0.269,5.254-1.673l5.087-5.242  l9.488-9.696c2.964-2.657,8.879-8.713,11.729-11.651L37.654,63.146z"/><text x="0" y="115" fill="#000000" font-size="5px" font-weight="bold" font-family="'Helvetica Neue', Helvetica, Arial-Unicode, Arial, Sans-serif">Created by Desbenoit</text><text x="0" y="120" fill="#000000" font-size="5px" font-weight="bold" font-family="'Helvetica Neue', Helvetica, Arial-Unicode, Arial, Sans-serif">from the Noun Project</text></svg>